<svg width="62" height="62" viewBox="0 0 62 62" fill="none" xmlns="http://www.w3.org/2000/svg">
<rect width="62" height="62" rx="8" fill="#06A580"/>
<path d="M33.6646 27.6274C33.6658 26.3634 34.1457 25.1467 35.0078 24.2223C35.8699 23.2978 37.0501 22.7342 38.311 22.6448C39.5718 22.5554 40.8198 22.9469 41.8036 23.7405C42.7875 24.534 43.4343 25.6708 43.6139 26.922L44.7882 26.5967C44.5295 25.061 43.7033 23.6785 42.4732 22.7232C41.2431 21.768 39.6991 21.3099 38.1471 21.4396C36.5951 21.5692 35.1485 22.2773 34.0941 23.4234C33.0396 24.5696 32.4543 26.07 32.4541 27.6274C32.4541 27.8374 32.4649 28.045 32.4854 28.2498H33.7049C33.6786 28.0434 33.6651 27.8355 33.6646 27.6274Z" fill="#FD9226"/>
<path d="M38.6645 23.8774C38.1193 23.877 37.5805 23.9955 37.0858 24.2248C36.5911 24.4541 36.1525 24.7886 35.8004 25.2049C35.4483 25.6212 35.1914 26.1094 35.0474 26.6353C34.9035 27.1612 34.8761 27.7122 34.9671 28.2498H36.243C36.1547 27.9072 36.1402 27.5498 36.2004 27.2012C36.2605 26.8525 36.394 26.5207 36.5919 26.2274C36.7899 25.9342 37.0478 25.6864 37.3486 25.5002C37.6495 25.3141 37.9864 25.1939 38.3371 25.1477C38.6879 25.1014 39.0444 25.1302 39.3832 25.2319C39.722 25.3337 40.0354 25.5062 40.3026 25.7381C40.5698 25.97 40.7847 26.2559 40.9332 26.5771C41.0816 26.8982 41.1603 27.2471 41.1638 27.6009L42.3963 27.2594C42.3038 26.3335 41.8709 25.4749 41.1814 24.85C40.492 24.2252 39.595 23.8786 38.6645 23.8774Z" fill="#91A666"/>
<path d="M39.8686 27.9597C39.924 27.7611 39.9294 27.552 39.8843 27.3508C39.8393 27.1497 39.7452 26.9628 39.6104 26.8068C39.4757 26.6508 39.3044 26.5306 39.1119 26.4568C38.9195 26.3831 38.7117 26.358 38.5073 26.384C38.3028 26.4099 38.1079 26.486 37.9399 26.6055C37.772 26.725 37.6362 26.8842 37.5446 27.0688C37.4531 27.2535 37.4086 27.458 37.4152 27.664C37.4218 27.87 37.4792 28.0712 37.5824 28.2497H38.8222L39.8686 27.9597Z" fill="#7A80DD"/>
<path d="M38.6644 25.1274C38.2831 25.1275 37.9068 25.2148 37.5644 25.3826C37.222 25.5504 36.9225 25.7943 36.6889 26.0956C36.4552 26.3969 36.2934 26.7476 36.2161 27.121C36.1387 27.4943 36.1478 27.8804 36.2425 28.2498H37.5816C37.4781 28.0713 37.4204 27.8699 37.4137 27.6637C37.4069 27.4575 37.4513 27.2528 37.5428 27.0679C37.6343 26.883 37.7702 26.7236 37.9383 26.604C38.1064 26.4843 38.3015 26.4081 38.5062 26.3821C38.7109 26.3562 38.9188 26.3813 39.1114 26.4552C39.3041 26.529 39.4754 26.6495 39.6102 26.8057C39.745 26.9619 39.8391 27.149 39.8841 27.3504C39.929 27.5517 39.9234 27.7611 39.8678 27.9598L40.5326 27.7756L41.1634 27.6009C41.1557 26.9428 40.8892 26.3143 40.4214 25.8513C39.9537 25.3884 39.3225 25.1283 38.6644 25.1274Z" fill="#6699CE"/>
<path d="M38.6646 22.6274C37.9551 22.6262 37.2535 22.7762 36.6065 23.0675C35.9596 23.3587 35.3822 23.7846 34.9128 24.3167C34.4434 24.8487 34.0929 25.4747 33.8846 26.1529C33.6762 26.8312 33.6149 27.546 33.7046 28.2498H34.9671C34.8821 27.7529 34.8981 27.2439 35.0142 26.7533C35.1303 26.2628 35.3442 25.8006 35.6429 25.3946C35.9417 24.9885 36.3193 24.6469 36.7532 24.3901C37.187 24.1333 37.6681 23.9666 38.1678 23.9C38.6676 23.8333 39.1756 23.8682 39.6615 24.0024C40.1475 24.1365 40.6014 24.3673 40.9961 24.6809C41.3908 24.9945 41.7183 25.3845 41.9588 25.8275C42.1994 26.2706 42.3482 26.7576 42.3963 27.2594L43.0057 27.0907L43.6139 26.9221C43.4428 25.7309 42.8483 24.6413 41.9394 23.8526C41.0305 23.064 39.8679 22.629 38.6646 22.6274Z" fill="#EEB436"/>
<path d="M38.6646 20.1665C36.6865 20.1687 34.79 20.9554 33.3913 22.3542C31.9925 23.7529 31.2058 25.6493 31.2036 27.6274C31.2036 27.8371 31.2128 28.0445 31.2298 28.2498H32.4849C32.4644 28.045 32.4536 27.8374 32.4536 27.6274C32.4534 26.0698 33.0386 24.569 34.0931 23.4226C35.1476 22.2762 36.5944 21.5679 38.1466 21.4382C39.6988 21.3085 41.2431 21.7668 42.4733 22.7223C43.7034 23.6778 44.5296 25.0607 44.7879 26.5967L45.3951 26.4285L45.9992 26.2611C45.6781 24.5499 44.7695 23.0045 43.4304 21.8918C42.0913 20.779 40.4056 20.1688 38.6646 20.1665Z" fill="#EA2B2D"/>
<path d="M31.438 13.8775H31.0176C30.8885 13.5119 30.6492 13.1954 30.3328 12.9715C30.0163 12.7477 29.6382 12.6274 29.2505 12.6274C28.8628 12.6274 28.4847 12.7477 28.1682 12.9715C27.8517 13.1954 27.6125 13.5119 27.4834 13.8775H27.063C26.6486 13.8775 26.2512 14.0421 25.9581 14.3351C25.6651 14.6281 25.5005 15.0256 25.5005 15.44C25.5005 15.8544 25.6651 16.2518 25.9581 16.5448C26.2512 16.8378 26.6486 17.0025 27.063 17.0025H31.438C31.8524 17.0025 32.2498 16.8378 32.5428 16.5448C32.8359 16.2518 33.0005 15.8544 33.0005 15.44C33.0005 15.0256 32.8359 14.6281 32.5428 14.3351C32.2498 14.0421 31.8524 13.8775 31.438 13.8775Z" fill="#EAE9E4"/>
<path d="M40.5005 27.6274H20.7743L20.5005 29.5024L17.3755 33.8774L19.8755 36.1153V45.1274L25.5005 45.7524V48.8774H39.2505V43.2524L40.0287 40.1933C41.0273 36.2675 41.2173 32.1797 40.5872 28.1782L40.5005 27.6274Z" fill="white"/>
<path d="M21.7505 19.8149C22.6134 19.8149 23.313 19.1154 23.313 18.2524C23.313 17.3895 22.6134 16.6899 21.7505 16.6899C20.8875 16.6899 20.188 17.3895 20.188 18.2524C20.188 19.1154 20.8875 19.8149 21.7505 19.8149Z" fill="#EA2B2D"/>
<path d="M17.6881 25.4416C18.7245 25.4416 19.5646 24.6014 19.5646 23.565C19.5646 22.5286 18.7245 21.6885 17.6881 21.6885C16.6517 21.6885 15.8115 22.5286 15.8115 23.565C15.8115 24.6014 16.6517 25.4416 17.6881 25.4416Z" fill="#91A666"/>
<path d="M38.3129 16.078C39.3557 16.078 40.2011 15.2327 40.2011 14.1899C40.2011 13.1471 39.3557 12.3018 38.3129 12.3018C37.2701 12.3018 36.4248 13.1471 36.4248 14.1899C36.4248 15.2327 37.2701 16.078 38.3129 16.078Z" fill="#6699CE"/>
<path d="M29.4724 18.7612L30.4771 20.8976L32.8194 21.1929L31.0981 22.8087L31.541 25.1275L29.4724 23.9897L27.4039 25.1275L27.8467 22.8087L26.1255 21.1929L28.4677 20.8976L29.4724 18.7612Z" fill="#EEB436"/>
<path d="M44.8755 19.1899C45.7384 19.1899 46.438 18.4904 46.438 17.6274C46.438 16.7645 45.7384 16.0649 44.8755 16.0649C44.0125 16.0649 43.313 16.7645 43.313 17.6274C43.313 18.4904 44.0125 19.1899 44.8755 19.1899Z" fill="#FD9226"/>
<path d="M46.1775 26.4814H46.0707C45.9515 25.9212 45.6437 25.4189 45.1985 25.0585C44.7534 24.6981 44.1981 24.5015 43.6254 24.5015C43.0526 24.5015 42.4973 24.6981 42.0522 25.0585C41.607 25.4189 41.2992 25.9212 41.18 26.4814H41.0732C40.5918 26.4846 40.1312 26.678 39.7919 27.0195C39.4526 27.3611 39.2622 27.8229 39.2622 28.3043C39.2622 28.7858 39.4526 29.2476 39.7919 29.5892C40.1312 29.9307 40.5918 30.1241 41.0732 30.1273H46.1775C46.6589 30.1241 47.1195 29.9307 47.4588 29.5892C47.7981 29.2476 47.9885 28.7858 47.9885 28.3043C47.9885 27.8229 47.7981 27.3611 47.4588 27.0195C47.1195 26.678 46.6589 26.4846 46.1775 26.4814Z" fill="#EAE9E4"/>
<path d="M27.655 31.1207C27.5067 31.0465 27.3351 31.0343 27.1778 31.0867C27.0206 31.1392 26.8906 31.2519 26.8164 31.4001L26.7334 31.5662C26.574 31.8851 26.3289 32.1532 26.0257 32.3406C25.7225 32.5281 25.373 32.6273 25.0166 32.6273C24.6601 32.6273 24.3107 32.5281 24.0074 32.3406C23.7042 32.1532 23.4591 31.8851 23.2997 31.5662L23.2168 31.4002C23.1426 31.2519 23.0126 31.1392 22.8554 31.0868C22.6981 31.0344 22.5265 31.0466 22.3782 31.1207C22.2299 31.1949 22.1172 31.3249 22.0648 31.4821C22.0124 31.6394 22.0246 31.811 22.0987 31.9593L22.1818 32.1252C22.445 32.6517 22.8496 33.0944 23.3503 33.4039C23.851 33.7133 24.428 33.8772 25.0166 33.8772C25.6052 33.8772 26.1822 33.7133 26.6829 33.4039C27.1836 33.0944 27.5882 32.6517 27.8514 32.1252L27.9344 31.9592C28.0085 31.8109 28.0207 31.6393 27.9683 31.4821C27.9159 31.3248 27.8032 31.1948 27.655 31.1207Z" fill="black"/>
<path d="M46.5435 25.8837C46.3174 25.2998 45.9217 24.7969 45.4074 24.4397C45.3996 24.417 45.3904 24.3947 45.38 24.373C44.9239 23.4326 44.2754 22.5985 43.4766 21.9246C42.6778 21.2506 41.7464 20.7519 40.7427 20.4606C41.3103 19.5338 42.1662 18.8189 43.1792 18.4252C43.3667 18.8238 43.6886 19.1435 44.0883 19.3285C44.4881 19.5134 44.9402 19.5518 45.3653 19.4367C45.7905 19.3217 46.1616 19.0607 46.4136 18.6994C46.6655 18.3381 46.7823 17.8997 46.7433 17.461C46.7044 17.0222 46.5122 16.6112 46.2005 16.3C45.8888 15.9888 45.4775 15.7972 45.0388 15.7589C44.6 15.7206 44.1617 15.838 43.8008 16.0905C43.4399 16.343 43.1794 16.7144 43.065 17.1398C41.5024 17.645 40.2032 18.748 39.4511 20.2079C37.9468 20.0487 36.4296 20.3505 35.1008 21.0734C33.772 21.7962 32.6943 22.9059 32.0106 24.2552L31.7762 23.0287L33.2468 21.6483C33.3333 21.5671 33.3949 21.463 33.4245 21.3481C33.454 21.2332 33.4502 21.1122 33.4136 20.9994C33.3769 20.8866 33.3089 20.7865 33.2175 20.7109C33.126 20.6353 33.015 20.5873 32.8973 20.5724L32.2192 20.487V17.4824C32.6964 17.2996 33.0946 16.9555 33.3446 16.5098C33.5946 16.0641 33.6806 15.5449 33.5878 15.0424C33.495 14.5399 33.2292 14.0857 32.8365 13.7587C32.4438 13.4317 31.949 13.2525 31.438 13.2522H31.4145C31.1953 12.8722 30.8799 12.5567 30.5 12.3373C30.1201 12.1179 29.6892 12.0024 29.2505 12.0024C28.8118 12.0024 28.3809 12.1179 28.001 12.3373C27.6211 12.5567 27.3057 12.8722 27.0864 13.2522H27.063C26.5102 13.2526 25.9781 13.4622 25.5736 13.839C25.1691 14.2157 24.9222 14.7317 24.8826 15.283C24.843 15.8344 25.0136 16.3803 25.3602 16.811C25.7067 17.2417 26.2034 17.5252 26.7505 17.6045V20.4838L26.0474 20.5725C25.9296 20.5873 25.8186 20.6353 25.7272 20.7109C25.6357 20.7866 25.5677 20.8866 25.531 20.9995C25.4944 21.1123 25.4906 21.2332 25.5201 21.3481C25.5496 21.463 25.6112 21.5672 25.6977 21.6484L27.1685 23.0288L26.7899 25.01C26.7677 25.1265 26.779 25.247 26.8227 25.3573C26.8663 25.4676 26.9405 25.5632 27.0365 25.633C27.1324 25.7027 27.2463 25.7437 27.3647 25.7511C27.4831 25.7585 27.6011 25.7321 27.7051 25.6749L29.4724 24.7027L31.2397 25.6749C31.3036 25.7096 31.3732 25.7328 31.4452 25.7434C31.3376 26.156 31.2658 26.5772 31.2305 27.0022H20.7744C20.6243 27.0022 20.4792 27.0562 20.3656 27.1544C20.2521 27.2526 20.1776 27.3883 20.156 27.5369L19.9039 29.2621L16.8669 33.514C16.7775 33.6392 16.7374 33.793 16.7543 33.946C16.7712 34.0989 16.844 34.2403 16.9586 34.3429L19.2505 36.3945V45.1272C19.2505 45.281 19.3072 45.4294 19.4098 45.544C19.5123 45.6586 19.6536 45.7314 19.8064 45.7484L24.8755 46.3116V48.8772C24.8755 49.0429 24.9413 49.2019 25.0585 49.3191C25.1758 49.4363 25.3347 49.5022 25.5005 49.5022H39.2505C39.4162 49.5022 39.5752 49.4363 39.6924 49.3191C39.8096 49.2019 39.8755 49.0429 39.8755 48.8772V43.3303L40.6344 40.3469C41.4324 37.2152 41.7263 33.9764 41.5049 30.7522H46.1776C46.795 30.7521 47.3896 30.5187 47.8422 30.0987C48.2948 29.6788 48.572 29.1033 48.6183 28.4876C48.6645 27.872 48.4765 27.2615 48.0917 26.7786C47.707 26.2958 47.154 25.9761 46.5435 25.8837ZM30.9692 17.6272V20.3293L30.8963 20.3202L30.038 18.4949C29.9875 18.3876 29.9075 18.2969 29.8074 18.2333C29.7072 18.1697 29.5911 18.136 29.4724 18.136C29.3538 18.136 29.2377 18.1697 29.1375 18.2333C29.0374 18.2969 28.9574 18.3876 28.9069 18.4949L28.0485 20.3202L28.0005 20.3262V17.6272H30.9692ZM26.1255 15.4397C26.1258 15.1911 26.2246 14.9528 26.4004 14.7771C26.5761 14.6013 26.8144 14.5025 27.063 14.5022H27.4834C27.6126 14.5022 27.7387 14.4621 27.8442 14.3875C27.9497 14.3129 28.0295 14.2075 28.0726 14.0856C28.1586 13.8419 28.3181 13.6309 28.529 13.4816C28.74 13.3323 28.992 13.2522 29.2505 13.2522C29.5089 13.2522 29.761 13.3323 29.972 13.4816C30.1829 13.6309 30.3424 13.8419 30.4284 14.0856C30.4715 14.2075 30.5513 14.3129 30.6568 14.3875C30.7623 14.4621 30.8884 14.5022 31.0176 14.5022H31.438C31.6866 14.5022 31.9251 14.601 32.1009 14.7768C32.2767 14.9526 32.3755 15.1911 32.3755 15.4397C32.3755 15.6883 32.2767 15.9268 32.1009 16.1026C31.9251 16.2784 31.6866 16.3772 31.438 16.3772H27.063C26.8144 16.3769 26.5761 16.2781 26.4004 16.1023C26.2246 15.9266 26.1258 15.6883 26.1255 15.4397ZM30.6703 22.3526C30.5935 22.4247 30.5362 22.515 30.5036 22.6152C30.4711 22.7153 30.4644 22.8221 30.4842 22.9256L30.6777 23.9391L29.7739 23.4418C29.6816 23.391 29.578 23.3644 29.4727 23.3644C29.3674 23.3644 29.2638 23.391 29.1715 23.4418L28.2674 23.9391L28.461 22.9256C28.4808 22.8221 28.474 22.7153 28.4415 22.6152C28.4089 22.515 28.3516 22.4247 28.2749 22.3526L27.5225 21.6464L28.546 21.5173C28.6505 21.5042 28.7499 21.4648 28.8352 21.4029C28.9204 21.341 28.9886 21.2585 29.0334 21.1632L29.4725 20.2295L29.9117 21.1632C29.9565 21.2585 30.0246 21.341 30.1098 21.4029C30.195 21.4648 30.2945 21.5042 30.399 21.5173L31.4224 21.6464L30.6703 22.3526ZM44.8755 17.0022C44.9991 17.0022 45.1199 17.0388 45.2227 17.1075C45.3255 17.1762 45.4056 17.2738 45.4529 17.388C45.5002 17.5022 45.5126 17.6279 45.4885 17.7491C45.4644 17.8704 45.4048 17.9817 45.3174 18.0691C45.23 18.1565 45.1187 18.2161 44.9974 18.2402C44.8762 18.2643 44.7505 18.2519 44.6363 18.2046C44.5221 18.1573 44.4245 18.0772 44.3558 17.9744C44.2871 17.8716 44.2505 17.7508 44.2505 17.6272C44.2507 17.4615 44.3166 17.3026 44.4337 17.1855C44.5509 17.0683 44.7098 17.0024 44.8755 17.0022ZM38.6645 21.4163C39.625 21.412 40.5732 21.6323 41.4334 22.0596C42.2936 22.4869 43.042 23.1093 43.6189 23.8772C43.1576 23.8784 42.7023 23.9825 42.2863 24.1819C41.6346 23.496 40.8015 23.0092 39.884 22.7782C38.9665 22.5472 38.0022 22.5813 37.1034 22.8768C36.2045 23.1722 35.408 23.7167 34.8065 24.447C34.2049 25.1773 33.823 26.0634 33.7052 27.0022H32.4855C32.6422 25.4718 33.3605 24.0537 34.5018 23.022C35.643 21.9903 37.1261 21.4182 38.6645 21.4163ZM39.0017 27.0022H37.5837C37.6681 26.8555 37.7814 26.7276 37.9168 26.6262C38.0522 26.5247 38.2068 26.4519 38.3712 26.4121C38.5357 26.3723 38.7065 26.3663 38.8733 26.3946C39.0401 26.4229 39.1994 26.4849 39.3415 26.5767C39.2129 26.7056 39.099 26.8483 39.0019 27.0022H39.0017ZM40.7072 25.8837C40.6353 25.8945 40.5645 25.9084 40.4946 25.9256C40.1894 25.597 39.8014 25.3566 39.3713 25.2296C38.9412 25.1026 38.4849 25.0937 38.0501 25.2038C37.6154 25.314 37.2183 25.539 36.9005 25.8554C36.5827 26.1719 36.3559 26.568 36.2439 27.0022H34.9678C35.0816 26.3277 35.3779 25.6971 35.8244 25.1789C36.2709 24.6607 36.8507 24.2745 37.501 24.0623C38.1513 23.85 38.8473 23.8197 39.5136 23.9747C40.1798 24.1296 40.791 24.464 41.2809 24.9414C41.0352 25.2189 40.841 25.538 40.7074 25.8837H40.7072ZM39.423 40.0389L38.6448 43.0981C38.632 43.1484 38.6255 43.2002 38.6255 43.2522V48.2522H26.1255V45.7522C26.1255 45.5984 26.0688 45.45 25.9662 45.3354C25.8636 45.2208 25.7224 45.148 25.5695 45.131L20.5005 44.5678V39.6634H21.7675C22.2023 39.6646 22.633 39.5796 23.0348 39.4132C23.4365 39.2468 23.8012 39.0024 24.1078 38.6941C24.225 38.5769 24.2909 38.4179 24.2909 38.2522C24.2909 38.0864 24.225 37.9274 24.1078 37.8102C23.9906 37.693 23.8316 37.6271 23.6658 37.6271C23.5 37.6272 23.3411 37.693 23.2238 37.8102C23.033 38.0021 22.8061 38.1542 22.5561 38.2577C22.3061 38.3613 22.0381 38.4142 21.7675 38.4134H20.5005V36.1152C20.5005 36.0273 20.482 35.9404 20.4461 35.8601C20.4102 35.7799 20.3578 35.7081 20.2924 35.6495L18.2095 33.7848L21.0091 29.8654C21.0669 29.7845 21.1046 29.6909 21.1189 29.5925L21.3147 28.2522H38.6267C38.6267 28.2695 38.6255 28.2868 38.6255 28.3042C38.6261 28.8072 38.7813 29.2978 39.0702 29.7096C39.359 30.1213 39.7675 30.4343 40.2402 30.606C40.4832 33.7738 40.2071 36.9601 39.423 40.0389ZM46.1776 29.5022H41.0734C40.7573 29.4996 40.4551 29.3723 40.2325 29.1479C40.01 28.9235 39.8851 28.6203 39.8851 28.3043C39.8851 27.9882 40.01 27.685 40.2325 27.4606C40.4551 27.2362 40.7573 27.1089 41.0734 27.1063H41.1802C41.3234 27.1063 41.4623 27.0571 41.5736 26.9669C41.6849 26.8768 41.7619 26.7511 41.7916 26.6109C41.881 26.1909 42.1119 25.8142 42.4457 25.544C42.7795 25.2738 43.196 25.1263 43.6255 25.1263C44.055 25.1263 44.4714 25.2738 44.8052 25.544C45.139 25.8142 45.37 26.1909 45.4594 26.6109C45.4891 26.7511 45.566 26.8768 45.6773 26.9669C45.7886 27.0571 45.9275 27.1063 46.0708 27.1063H46.1776C46.4936 27.1089 46.7958 27.2362 47.0184 27.4606C47.241 27.685 47.3659 27.9882 47.3659 28.3043C47.3659 28.6203 47.241 28.9235 47.0184 29.1479C46.7958 29.3723 46.4936 29.4996 46.1776 29.5022Z" fill="black"/>
<path d="M35.5005 18.8773C35.6663 18.8773 35.8252 18.8115 35.9424 18.6943C36.0597 18.5771 36.1255 18.4181 36.1255 18.2523V18.1451C36.1234 17.3199 36.4037 16.5189 36.9198 15.8751C37.3233 16.2086 37.8331 16.3864 38.3565 16.3761C38.8799 16.3659 39.3823 16.1684 39.7725 15.8194C40.1628 15.4705 40.415 14.9932 40.4833 14.4741C40.5517 13.9551 40.4318 13.4287 40.1452 12.9906C39.8587 12.5525 39.4246 12.2316 38.9217 12.0861C38.4188 11.9407 37.8804 11.9804 37.4043 12.198C36.9281 12.4156 36.5458 12.7967 36.3266 13.2721C36.1074 13.7475 36.0659 14.2858 36.2096 14.7891C35.3502 15.6948 34.8724 16.8966 34.8755 18.1451V18.2523C34.8755 18.4181 34.9414 18.5771 35.0586 18.6943C35.1758 18.8115 35.3347 18.8773 35.5005 18.8773ZM38.313 13.2523C38.4984 13.2523 38.6797 13.3073 38.8338 13.4103C38.988 13.5134 39.1082 13.6598 39.1791 13.8311C39.2501 14.0024 39.2687 14.1909 39.2325 14.3727C39.1963 14.5546 39.107 14.7216 38.9759 14.8528C38.8448 14.9839 38.6778 15.0732 38.4959 15.1093C38.314 15.1455 38.1255 15.1269 37.9542 15.056C37.7829 14.985 37.6365 14.8649 37.5335 14.7107C37.4305 14.5565 37.3755 14.3753 37.3755 14.1898C37.3758 13.9413 37.4746 13.703 37.6504 13.5272C37.8261 13.3515 38.0644 13.2526 38.313 13.2523Z" fill="black"/>
<path d="M21.7505 20.1273C22.0126 20.1275 22.2718 20.0723 22.5112 19.9655C23.2321 20.9097 23.6235 22.0643 23.6255 23.2523C23.6255 23.4181 23.6913 23.5771 23.8086 23.6943C23.9258 23.8115 24.0847 23.8773 24.2505 23.8773C24.4163 23.8773 24.5752 23.8115 24.6924 23.6943C24.8096 23.5771 24.8755 23.4181 24.8755 23.2523C24.8735 21.7501 24.3657 20.2923 23.4339 19.114C23.4301 19.1092 23.4261 19.105 23.4219 19.1003C23.6065 18.7361 23.6671 18.3216 23.5946 17.9198C23.522 17.5181 23.3203 17.1509 23.02 16.8743C22.7197 16.5977 22.3374 16.4266 21.931 16.3872C21.5246 16.3478 21.1165 16.4421 20.7686 16.6558C20.4207 16.8696 20.1522 17.1911 20.0038 17.5714C19.8553 17.9518 19.8351 18.3702 19.9462 18.763C20.0574 19.1559 20.2937 19.5018 20.6194 19.748C20.9451 19.9943 21.3422 20.1274 21.7505 20.1273ZM21.7505 17.6273C21.8741 17.6273 21.9949 17.664 22.0977 17.7327C22.2005 17.8013 22.2806 17.8989 22.3279 18.0131C22.3752 18.1274 22.3876 18.253 22.3635 18.3743C22.3394 18.4955 22.2798 18.6069 22.1924 18.6943C22.105 18.7817 21.9937 18.8412 21.8724 18.8653C21.7512 18.8894 21.6255 18.8771 21.5113 18.8298C21.3971 18.7824 21.2995 18.7023 21.2308 18.5996C21.1622 18.4968 21.1255 18.3759 21.1255 18.2523C21.1257 18.0866 21.1916 17.9278 21.3088 17.8106C21.4259 17.6934 21.5848 17.6275 21.7505 17.6273Z" fill="black"/>
<path d="M19.804 24.1197C20.2192 24.1968 20.6146 24.3564 20.967 24.589C21.3194 24.8216 21.6215 25.1226 21.8555 25.474C21.9479 25.611 22.0907 25.7058 22.2528 25.7377C22.4148 25.7697 22.583 25.7362 22.7204 25.6446C22.8578 25.5529 22.9534 25.4106 22.9862 25.2487C23.019 25.0868 22.9864 24.9185 22.8955 24.7806C22.5427 24.2507 22.0792 23.8036 21.5369 23.4701C20.9947 23.1366 20.3866 22.9246 19.7545 22.8487C19.5826 22.3534 19.2385 21.9364 18.7849 21.6735C18.3313 21.4107 17.7984 21.3196 17.2832 21.4168C16.768 21.514 16.305 21.7931 15.9783 22.2031C15.6517 22.6132 15.4832 23.1269 15.5036 23.6508C15.524 24.1746 15.732 24.6737 16.0895 25.0571C16.4471 25.4405 16.9305 25.6826 17.4517 25.7395C17.9728 25.7963 18.497 25.664 18.9288 25.3667C19.3606 25.0694 19.6712 24.6268 19.804 24.1197ZM16.7505 23.565C16.7505 23.3796 16.8055 23.1983 16.9085 23.0441C17.0115 22.89 17.158 22.7698 17.3293 22.6988C17.5006 22.6279 17.6891 22.6093 17.8709 22.6455C18.0528 22.6817 18.2198 22.771 18.3509 22.9021C18.482 23.0332 18.5713 23.2002 18.6075 23.3821C18.6437 23.5639 18.6251 23.7524 18.5542 23.9237C18.4832 24.0951 18.363 24.2415 18.2089 24.3445C18.0547 24.4475 17.8734 24.5025 17.688 24.5025C17.4395 24.5022 17.2012 24.4034 17.0254 24.2276C16.8497 24.0518 16.7508 23.8135 16.7505 23.565Z" fill="black"/>
<path d="M16.7459 18.6222C16.7557 18.5407 16.7492 18.4581 16.727 18.379C16.7048 18.3 16.6672 18.2261 16.6164 18.1616C16.5656 18.0971 16.5026 18.0433 16.431 18.0031C16.3594 17.963 16.2806 17.9373 16.1991 17.9276C15.2475 17.8149 14.2829 17.9419 13.3929 18.2971C13.3167 18.3276 13.2472 18.3727 13.1885 18.4301C13.1298 18.4874 13.0829 18.5557 13.0505 18.6312C13.0182 18.7066 13.001 18.7877 13 18.8697C12.999 18.9518 13.0142 19.0333 13.0447 19.1095C13.0752 19.1857 13.1204 19.2552 13.1777 19.3139C13.235 19.3726 13.3034 19.4195 13.3788 19.4519C13.4542 19.4842 13.5353 19.5013 13.6174 19.5023C13.6994 19.5033 13.7809 19.4882 13.8571 19.4577C14.5529 19.18 15.307 19.0806 16.0509 19.1686C16.1325 19.1786 16.2152 19.1723 16.2943 19.1502C16.3734 19.1281 16.4474 19.0905 16.5119 19.0398C16.5765 18.989 16.6304 18.926 16.6706 18.8543C16.7107 18.7827 16.7363 18.7038 16.7459 18.6222Z" fill="black"/>
<path d="M18.1725 20.0062C18.3553 20.1406 18.5277 20.2887 18.6881 20.4493L18.8082 20.5694C18.9254 20.6866 19.0844 20.7524 19.2501 20.7524C19.4159 20.7524 19.5749 20.6866 19.6921 20.5694C19.8093 20.4522 19.8752 20.2932 19.8752 20.1274C19.8752 19.9617 19.8093 19.8027 19.6921 19.6855L19.572 19.5654C19.3667 19.3601 19.1461 19.1706 18.9121 18.9987C18.7784 18.9006 18.6113 18.8595 18.4474 18.8847C18.2835 18.9098 18.1363 18.999 18.0382 19.1326C17.9401 19.2663 17.8991 19.4334 17.9242 19.5973C17.9493 19.7612 18.0385 19.9084 18.1722 20.0065L18.1725 20.0062Z" fill="black"/>
</svg>
