<svg width="62" height="62" viewBox="0 0 62 62" fill="none" xmlns="http://www.w3.org/2000/svg">
<g clip-path="url(#clip0_2002_3034)">
<rect width="62" height="62" rx="8" fill="#06A580"/>
<path fill-rule="evenodd" clip-rule="evenodd" d="M15.6429 34.0782L18.0438 34.457L18.0875 34.6142C18.3755 35.6464 18.7872 36.6399 19.3137 37.5732L19.3939 37.7154L17.9644 39.6828C17.8582 39.8297 17.8077 40.0096 17.8219 40.1903C17.8361 40.371 17.9141 40.5408 18.0419 40.6693L21.3307 43.9581C21.4593 44.0859 21.6291 44.1638 21.8098 44.1779C21.9905 44.192 22.1704 44.1415 22.3172 44.0352L24.2836 42.6057L24.4256 42.6857C25.3594 43.212 26.3532 43.6239 27.3854 43.9126L27.5425 43.9563L27.9218 46.3569C27.9502 46.5361 28.0415 46.6993 28.1795 46.8172C28.3174 46.935 28.4929 46.9999 28.6743 47H33.325C33.5065 47.0001 33.682 46.9353 33.82 46.8174C33.9579 46.6995 34.0493 46.5363 34.0775 46.357L34.4568 43.9558L34.614 43.9121C35.6462 43.6241 36.6398 43.2124 37.5731 42.6858L37.7152 42.6057L39.6816 44.0352C39.8286 44.1416 40.0087 44.1922 40.1895 44.178C40.3704 44.1639 40.5404 44.086 40.6691 43.9581L43.9579 40.6694C44.0856 40.5408 44.1635 40.371 44.1776 40.1903C44.1917 40.0096 44.1412 39.8297 44.035 39.6828L42.6049 37.7154L42.6852 37.5732C43.2124 36.6403 43.6243 35.6467 43.9118 34.6144L43.9556 34.4571L46.3563 34.0783C46.5357 34.0501 46.6991 33.9588 46.8171 33.8208C46.9351 33.6829 47 33.5073 47.0001 33.3258V28.6743C47 28.4928 46.9351 28.3172 46.8171 28.1792C46.6991 28.0412 46.5357 27.95 46.3563 27.9218L43.9556 27.543L43.9119 27.3858C43.6239 26.3534 43.212 25.3597 42.6852 24.4263L42.6049 24.2841L44.035 22.3172C44.1412 22.1704 44.1917 21.9905 44.1776 21.8098C44.1635 21.6291 44.0856 21.4593 43.9579 21.3307L40.6691 18.0419C40.5404 17.9141 40.3704 17.8361 40.1895 17.822C40.0086 17.8079 39.8286 17.8585 39.6816 17.9649L37.7154 19.3938L37.5734 19.3136C36.6401 18.7871 35.6465 18.3755 34.6143 18.0878L34.4571 18.0441L34.0777 15.6428C34.0495 15.4635 33.9581 15.3003 33.8201 15.1824C33.6821 15.0646 33.5065 14.9999 33.325 15H28.6743C28.4929 15 28.3174 15.0648 28.1794 15.1827C28.0415 15.3006 27.9501 15.4638 27.9218 15.643L27.5425 18.0443L27.3852 18.088C26.3528 18.3758 25.3591 18.7874 24.4256 19.3139L24.2836 19.3939L22.3172 17.9649C22.1703 17.8587 21.9905 17.8082 21.8098 17.8223C21.6291 17.8364 21.4593 17.9143 21.3307 18.0419L18.0419 21.3307C17.9141 21.4592 17.8361 21.629 17.8219 21.8097C17.8077 21.9904 17.8582 22.1703 17.9644 22.3172L19.3938 24.2841L19.3136 24.4262C18.7872 25.3598 18.3755 26.3535 18.0875 27.3859L18.0438 27.543L15.6431 27.9218C15.4638 27.95 15.3005 28.0413 15.1826 28.1793C15.0647 28.3173 14.9999 28.4928 15 28.6743V33.3257C15 33.5071 15.0647 33.6826 15.1826 33.8206C15.3005 33.9586 15.4637 34.0499 15.6429 34.0782ZM34.8357 31.1457C34.8612 31.3448 34.9643 31.5258 35.1225 31.6493C35.2806 31.7728 35.4812 31.8289 35.6805 31.8054C35.8799 31.7819 36.0619 31.6807 36.187 31.5237C36.3121 31.3668 36.3703 31.1668 36.3487 30.9672L36.0879 28.5798C36.0654 28.379 35.9643 28.1953 35.8068 28.0689C35.6492 27.9425 35.448 27.8836 35.2472 27.9051L32.8603 28.1668C32.6653 28.1873 32.4858 28.2822 32.359 28.4317C32.2323 28.5812 32.168 28.7738 32.1797 28.9695C32.1914 29.1651 32.278 29.3488 32.4217 29.4821C32.5653 29.6155 32.7548 29.6884 32.9508 29.6856L33.499 29.6793L30.7868 32.9543L28.0118 29.6036C27.9403 29.5173 27.8506 29.4478 27.7492 29.4001C27.6477 29.3524 27.537 29.3277 27.4249 29.3277C27.3128 29.3277 27.2021 29.3524 27.1006 29.4001C26.9992 29.4478 26.9095 29.5173 26.838 29.6036L24.4596 32.475L24.381 31.9025C24.1549 30.253 24.5525 28.5785 25.496 27.2066C26.4394 25.8348 27.8608 24.8643 29.482 24.4852C31.1032 24.1061 32.8075 24.3455 34.2615 25.1567C35.7155 25.9679 36.8144 27.2924 37.3433 28.8711C37.8722 30.4498 37.793 32.1691 37.1211 33.6924C36.4493 35.2158 35.2332 36.4337 33.7108 37.1077C32.1884 37.7817 30.4693 37.8634 28.8898 37.3368C27.3103 36.8102 25.9842 35.7132 25.1709 34.2604L25.0856 34.1083L27.4246 31.2838L30.2003 34.6349C30.2717 34.7214 30.3612 34.791 30.4626 34.8388C30.564 34.8865 30.6747 34.9113 30.7868 34.9113C30.8989 34.9113 31.0096 34.8865 31.1109 34.8388C31.2123 34.791 31.3019 34.7214 31.3732 34.6349L34.8358 30.4546V31.1459L34.8357 31.1457ZM31 39.2037C26.4766 39.2037 22.7958 35.5235 22.7958 31C22.7958 26.4765 26.4764 22.7963 31 22.7963C35.5236 22.7963 39.2037 26.4766 39.2037 31C39.2037 35.5234 35.5232 39.2037 31 39.2037Z" fill="white"/>
</g>
<defs>
<clipPath id="clip0_2002_3034">
<rect width="62" height="62" rx="8" fill="white"/>
</clipPath>
</defs>
</svg>
